/* XPM */
static char *da7d491a22874fde9ed8c00e91845c56gRvbJ5To2vHtb99C[] = {
/* columns rows colors chars-per-pixel */
"64 64 256 2 ",
"   c #1A0905",
".  c #1C150B",
"X  c #1C1D1C",
"o  c #191916",
"O  c #0B0C0B",
"+  c #240C04",
"@  c #280B06",
"#  c #380902",
"$  c #2C130E",
"%  c #281409",
"&  c #3C1301",
"*  c #361709",
"=  c #2D1511",
"-  c #2D1B13",
";  c #221D1B",
":  c #261A15",
">  c #341B13",
",  c #3B1C15",
"<  c #341D1B",
"1  c #3A1E1B",
"2  c #321513",
"3  c #1C221B",
"4  c #17200D",
"5  c #22221D",
"6  c #292318",
"7  c #35221C",
"8  c #3C231C",
"9  c #392519",
"0  c #332811",
"q  c #1B1C23",
"w  c #121F2F",
"e  c #271B26",
"r  c #391E23",
"t  c #1D2122",
"y  c #1A2724",
"u  c #1B2334",
"i  c #232424",
"p  c #2B2423",
"a  c #24252A",
"s  c #2B2C2C",
"d  c #282928",
"f  c #3C2523",
"g  c #3D2A24",
"h  c #3E2B29",
"j  c #342825",
"k  c #3D332B",
"l  c #383328",
"z  c #282835",
"x  c #2B363A",
"c  c #363636",
"v  c #2D322F",
"b  c #4B0D01",
"n  c #450801",
"m  c #530B01",
"M  c #580800",
"N  c #451302",
"B  c #4D1402",
"V  c #471806",
"C  c #521401",
"Z  c #591706",
"A  c #461B14",
"S  c #571914",
"D  c #691A04",
"F  c #781702",
"G  c #6D170A",
"H  c #5A230D",
"J  c #42241D",
"K  c #49271B",
"L  c #582819",
"P  c #4F2D13",
"I  c #662509",
"U  c #792406",
"Y  c #642917",
"T  c #772A19",
"R  c #773517",
"E  c #683218",
"W  c #422624",
"Q  c #432A24",
"!  c #4B2C24",
"~  c #432C2A",
"^  c #4B2E2A",
"/  c #462527",
"(  c #562C25",
")  c #45342C",
"_  c #4B322C",
"`  c #4C392C",
"'  c #473225",
"]  c #52352C",
"[  c #523B2E",
"{  c #593629",
"}  c #492C31",
"|  c #4D3632",
" . c #4D3B33",
".. c #483937",
"X. c #533634",
"o. c #543B34",
"O. c #5B3D35",
"+. c #553D39",
"@. c #5B3E3A",
"#. c #583536",
"$. c #65382A",
"%. c #7B3824",
"&. c #633C37",
"*. c #692D24",
"=. c #451F2A",
"-. c #354633",
";. c #7B411C",
":. c #474638",
">. c #5A4236",
",. c #55423B",
"<. c #5C433B",
"1. c #5C493E",
"2. c #544134",
"3. c #594931",
"4. c #62443D",
"5. c #64493E",
"6. c #6A493E",
"7. c #664438",
"8. c #764530",
"9. c #2E3F45",
"0. c #453642",
"q. c #693F49",
"w. c #3B4345",
"e. c #454646",
"r. c #5D4541",
"t. c #5C4A42",
"y. c #564745",
"u. c #585250",
"i. c #624642",
"p. c #694641",
"a. c #644A43",
"s. c #6B4D44",
"d. c #654D4A",
"f. c #6B4E4A",
"g. c #63444A",
"h. c #724F45",
"j. c #764D47",
"k. c #6C5246",
"l. c #6D524B",
"z. c #68554A",
"x. c #735146",
"c. c #72544C",
"v. c #7A554D",
"b. c #745A4D",
"n. c #7B594D",
"m. c #775645",
"M. c #6C5651",
"N. c #695A54",
"B. c #755A53",
"V. c #7B5C54",
"C. c #765956",
"Z. c #694E55",
"A. c #7D625A",
"S. c #786457",
"D. c #726555",
"F. c #5F5460",
"G. c #715864",
"H. c #786564",
"J. c #6E6869",
"K. c #58626B",
"L. c #880C00",
"P. c #8C1C00",
"I. c #881801",
"U. c #931501",
"Y. c #9A1400",
"T. c #941B00",
"R. c #9B1B00",
"E. c #92180B",
"W. c #9B0D00",
"Q. c #A51A01",
"!. c #AB1600",
"~. c #882406",
"^. c #992606",
"/. c #872918",
"(. c #982916",
"). c #863718",
"_. c #97371A",
"`. c #92380B",
"'. c #A32402",
"]. c #AA2805",
"[. c #B62807",
"{. c #A83409",
"}. c #B9380B",
"|. c #A83818",
" X c #B83918",
".X c #B12E15",
"XX c #883827",
"oX c #963826",
"OX c #A93D25",
"+X c #B93C27",
"@X c #A63F30",
"#X c #C9390C",
"$X c #D33C0B",
"%X c #C43C15",
"&X c #CD3C13",
"*X c #C73A18",
"=X c #D33D14",
"-X c #D83C1B",
";X c #C72C0D",
":X c #E53C17",
">X c #C83C22",
",X c #D83B23",
"<X c #C53C36",
"1X c #E43E28",
"2X c #964517",
"3X c #A84619",
"4X c #B9451C",
"5X c #B54811",
"6X c #884323",
"7X c #994529",
"8X c #924A34",
"9X c #A74627",
"0X c #B94726",
"qX c #B75329",
"wX c #B64834",
"eX c #B95636",
"rX c #A54F34",
"tX c #CA430A",
"yX c #D6450B",
"uX c #CB4214",
"iX c #C4441C",
"pX c #CB431C",
"aX c #C74918",
"sX c #D3431C",
"dX c #DC431C",
"fX c #D44B1B",
"gX c #D74615",
"hX c #CA501C",
"jX c #D6521B",
"kX c #E14618",
"lX c #C44423",
"zX c #CC4422",
"xX c #CC4B23",
"cX c #CB4C2B",
"vX c #C54928",
"bX c #D34524",
"nX c #D44B24",
"mX c #DB4C24",
"MX c #DA4B2B",
"NX c #D64629",
"BX c #C65328",
"VX c #D55327",
"CX c #CB4C32",
"ZX c #C54B37",
"AX c #D54D34",
"SX c #C85436",
"DX c #D55234",
"FX c #E3492A",
"GX c #D46133",
"HX c #815E55",
"JX c #8B5048",
"KX c #B55544",
"LX c #82645B",
"PX c #866A64",
"IX c #9A6156",
"UX c #CE5643",
/* pixels */
"K 7.x.h.6.6.j.j.K j.HXj.JXv.HXh.c.a.7 1.' 1.1.2.<.1.~ f y.Z.0.r } q.g.#.@.( / &.X.6.] 4.1.r.f _ V.{ { b.LXk.c.9 3.1.<.1.4.7.O.O.",
"! O.6.6.s.x.h.6.K j.V.v.c.h.HXx.B._ % k.1.<. .1. .1.| ^ | | =.} r } ^ i.Z.^ A p.O.p.O.4.X.1. .>.HXh.6.x.v.k.c.* [ [ o.o.>.>.<.<.",
"4.5.s.k.k.c.4.{ { n.V.HXB.v.n.n.] #.1 @.Q 1.1. .d. .7 $ < f o.z.Z.| @ - @.,.^ ^ +.<.@.r.o.r. .W k.v.LXb.A.S.V.0 4.1.<.<.@.1.<.&.",
"b.l.k.k.k.k.<._ _ k.6.b.x.k.f.j.HX&.! c.a.a.r.d.:.g 7  .D.A.l.5.l.S.N.2.g - f ,.t.r.<.r.+.d.@.1 f.v.V.7.i.s.s.8 <.<.<.@.@.#.+.@.",
"9 9 9 0 9 J 9 0 9 _ 9 5.k.S.b.V.j.A @ W 1 r = : - g ,.b.k.3.{ 3.3.3.5.k.5.0   7 y.+.y.+.X.r.p.] v.s.i.2 * 2 8 $ ^ | +.+.@.@.@.@.",
"` ` ' ` ` ` ` [ >.2.> ' J 8 @ @ #.&.q.A + < < = N.` > * V P H & & * V P ' ' ` ,.  : j f f = 2 = #.] #.= 2 2 1 1 + $ = = 2 = 2 2 ",
"1.1.1.1.1.>.1.<.<.<.9 5.5.k.[ 7.s.p.V.@.< : ~ N.<.c.x.L # B E I ;.I & @ V n.S.t.+...0.y.N.r.o.| ] #.p.A ^ ^ ~ Q f ~ ~ f < < 1 r ",
"2.2.>.1.1.>.>.>.>.>., s.a.l.4.c.f.f.M., $ 0.C.V.p.&.Y V I 8XrXI 2X2X7XR V V ( ` H.r.f f N.N.z.l.Z.v.C., 1 W f f f ~ f r r < =./ ",
"O.] a.i.O.1.X.p.{ O.A d.p.p.c.s.z.1.N.0 ) A.V.! & S n 8X7X9XOXI.3X{.oXeXG b Z A &.V.C.h h t.,.7 g.j.f.@.$ 1 ~ f f h f f r r f / ",
"J J #.O.O.7.] &.4.7.A p.c.s.j.i.t.1.:.l N.c.J L S Y D OX9X|.|.U. X X X9XF /.%.S *.&.@.+. .` :.a.f.Z.f.r.2 f h 7 h ~ h h f r h / ",
"] _ O.&.i.p.O.&.4.&.A &.p.f.j.i.N.6 k S.b.7.L C %.oXF OX X.X XY.[.*X X.XI.OXrXI n L j.PXa.g ) N.a.s.i.r.2 W ^ h f j h h h h / } ",
"4.O.O.O.O.O.O.@.#.O., i.p.p.c.f.j 6 0 2.7.L C T oXOXI.+XiX X*XW.;X;X%X*XU..XwXoXG I *.$.9 - h t.f.f.p.@.= f ~ ) f f f h / h / ~ ",
"i.<.O.@.<.@.<.4.<.O.1 a.v.c.s.@.7 ,.' K N Z T 7X9X|.U. XzXzXzXY.;X;X;XpXT.^.0X9XrXI n # K 4.+.f g.c.f.f.> 7 8 Q h g h Q h f r r ",
"` o.o.1.a.<.r.1.1.O.8 f.C.f.@.f d.M.k.L # D rX3X X|.U.%XxXbXzXU. X*X;X%XY.].4X{.eXF n H 6.LXM.~ _ 4.M.B.Q 8 g g g g f f f ~ ~ ~ ",
"g ) h  .) 7 Q f _ _ =  . .^ X.^ d.V.( n G D (.0X X}.U.%XpXxXxXR. XiX}.5XY.].aX{.3XU D H H &.C.C.8 ] p.l.Q g g g 9 9 7 7 f Q ~ W ",
"o.1.) ` g % 7 : $ 7   r + + _ d.C.! N I ).U |.}.}.%XR.*XpXpXlX^. XiX%XnXR.^.4XiX{.(._.T B ( B.l.^ ] <.a.> > > - Q g 7 7 7 < 1 < ",
"b.n.V.s.V., f Q f Q ^ } < < Z.B.k.& C ).6XD 5X$X;X=XR.vX,X-XbXR.*XnXsXVXE..XcX-X>XY.(.8XM H 5.:.M.* $ ] , 8 Q f.V.B.> J > ! > J ",
"v.m.v.x.k.> W Q } ~ f f = 1 f.Z.7.V D `.2XD aX$X=X>XT.>X-X:XfXR.iXfXgXVXT.|.cXbXFX!.E.KXD C 3.1.B.! J B.LXLXc.b.x.B.J 4.a.c.s.l.",
"n.m.j.n.{ 2 W W r f r f r | Z.&.{ Z ~.|.3XF #XgXdXbXI.0XsXfXhX~.}.fXyXjX~.|.xXuXdXQ.^.UX`.I P S.S.4.@ O.M.c.c.l.B.V.W k.l.c.f.6.",
"n.x.c.LXW 2 Q f < r < p = X.i.^ L G |.*X XL.$XkXdXzXF 9XpXfXhXP.iXjXyXjX~. XxXuXmX].^.SX3XI V n.[ s.2 4.V.c.V.B.l.c., 4.a.a.l.4.",
"n.b.n.LXJ 1 ^ f h f < < $ d.H.V.V T +X>X>XW.:X:X-XzXI.9XpXdXxXQ.#X-X#XfXP.|.iX%XmX[.Q.+XOX~.C 8.$.B.2 7.B.4.v.l.V.c.Q s.f.a.b.f.",
"b.b.b.A.8 7 ) 7 h h f f @ a.l.c.# %.CX-X>XW.:X:XmXvXU rXvXbXAXQ.*XbX=XnX~.OXcXuX=X[..XZXSXOXD $.h.A.> 7.V.c.B.B.l.>.] k.x.s.k.6.",
"b.b.b.M.8 < ) f h h h h   f > * @ XXSXpX>XQ.1X-XxX9XZ 8.OXwXwXU.NXMXsXVX^.9XSXlXbX[.+XZXvX|.n B # J   O.A.B.c.a.] 2 _ 6.s.f.f.c.",
"k.c.z.a.7 - ) f h r p ~ @ r.X.>.@ 6XSX%XlXQ.bX&X0X6X+ K %.oX8XZ /._.^.oXC R XX`._.F F XXoX).# _ [ #.* 4.c.l.c.V.f.J 4.s.4.s.O.s.",
"S.n.a.9 $ j | j h h  .f @ g.d.n.N R hXuXvX^.iX XR + 6 y 3.P ' ,.#.&.( ` e.w.e._ ! { d.#.#.0.u x M.b.J O.PXV.A.b.LXO.7.l.c.c.B.k.",
"' _ ' > % 7 h < - = < $ @ p.a.O.N ).hXsXlXT.iX5Xm * -.-.l ^ ) k ..#.' ) x -.-.' ' _ y.c h s w x y.c.J J #.! ] ] ] 8 8 ! K 8 ] ^ ",
"7 W g 9 > - < - ~ f h g $ s.V.( n `.bX-XpXU.-XiX3XC 0 v =.A 2 2 B Z m B % % V V C n N V C V   l 1.V._ 8 ! J ! ^ ! ! J ] J , O.#.",
"[ ] ` [ _ p < f +.r.i.<., g.PX( M _.mX-XlXY.zXbXSX).V 0 XXKX8XG @X9X3X2X;.;.2X3X4X~.).7X9X8X* P c.A.` K 4.4.<.7.7.a.o.f.] [ A.b.",
"X.[ _ o.X.h f r.r.y.i.@.$ &.HX*.M (.MXsXiXY.dXkXNX<X/.oX<XUXUXE.lXhXuXhX`.2XBXaXmX].{.vXqXqXC L n.c.! Q a.4.o.1.O.a.[ 6.K <.V.c.",
"] ] ~ _ o.W ~ g.r.#.+.#., s.C.$.n oXAX*X4XU.gXgXFX*XE.ZX1X;X XY.*XsX$XfXP.{.pX&XkX!..XAXvXqXD 8.6.4.Q ! 4.>.! 6.O.@.] O., s.B.c.",
"_ o._ ^ o.W r i.g.+.i.@./ j.j.JXm oXcX4X3X~.tXyX$XnXI.OX,XFXGX^.%XsXuXVX~.|.VXuXdX!. XwX|.9Xn 8.6.a.] J 4.4.[ 6.4.>.4.>.8 LXc.V.",
"^ #._ ] +.~ f i.+.#.f.#., &.#.j.Z oXCX>X9XU qXyX=XuXI.BXNX;X5XT.4XzX$XVXI.OXcX%XbXQ..XZX0XSXm 7.B.n.X.J 4.l.#.#.<.X.4.X.> LXs.B.",
"| #.| ^ #.W < / p.g.+.i.A i.p.$.M |.*XDXKXZ eXvX=X-XU.aXjXtXxXI.*XmX=XVXT. XcX>XbX]..XAX%X+XS q.LXC.! / r.X.,.r.+.l.<.] J LXs.LX",
"^ X.^ _ | f 1 ^ #.i.+.r.< +.#.( m |.DXwXR V R qXbXbXY.pXgX#XvXI.%XmX$XjXR. XnXbXAX]..XMXsXvXm / 0.&.f ^ t.r.,.+.r.t.4._ O.V.x.6.",
"| _ _ X.X.8 f o.+.d.@.X.  r 7 * # _.eX~.& 0 b `.zXmXY.zXkX$XcXR.%XfXtXjX^.{.hXaXVX^.].VXyXBXN 7 * 8 @ < X.,.+. .d.+.@.> s.c.LXm.",
"| _  .o.| f ' 1.o.t.+.1.8 B.A.V.& %.2Xm * 3.n M +X>XU.zXsX-XAXR.#XgXtXjXT.5XjXuXhX'.{.jXtX5XC 2.f.c.^ f +.t.d.d.i.X.@.7 f.k.LXn.",
"_ ' ' ` ' 9 ' ` ,.t. .o.0 N.b.3.* 8.R # ] [ Y M .X>XI.vXnXsXDXR.#XgXyXjXR.}.fXtXhX'.[.jXtX4XZ i.C.C.~ @ 2 < f - = Q Q W ] K K K ",
"9 $ 7 9 - 0 9 - % 9 9 l * z.z.` % 8XoXM K + E F  XCXI.wXpXiXSXU.&XkX$XkXR.}.gXuXMX].].jXyXxXn / d.V.` = 1 f 7 + Q d.a.s.7.4.7.>.",
"z.6.z.z.5.z.z.2.3.b.x.k.K D.6.` # XXKX/.S # T (.lXcXP.9XaXaXcXI.*XdX=XMXR. XbX%XAX'.].nXyXBXn r X.l.| > g ) Q = | C.k.k.s.x.c.s.",
"k.5.k.5.5.c.k.K [ S.n.k.9 k.k.$.n oXUXUXoXI _.BXzXMXI.3XaXhXBXT.*XFX-XMXR..XxX*XAX'.{.xXuXqXn ~ <.C.X.= 8 ^ h $ Q N.f.a.s.s.s.K ",
"m.6.s.n.7.6.c.] { n.c.x.K 7.4.HXm oXAX1XwXI.vXxX#X,XP.qXtXjXaXT.%XMXbXaX^.{.xX4XcX^.].aXhX5XV | M.c.Q < Q f 8 - +.a.l.s.a.s.7.! ",
"k.6.6.x.7.s.x.K 6.HXv.c.! x.M.8XM oXMX-XwXP.pXsX-X-XL.0XtXjXjXQ.*XNXfXaX^.|.VXiXBX^.{.aXyX5XN | i.a.f 2 ~ Q h 7 ,.r.f.s.f.f.6.7.",
"m.x.6.x.h.x.x.J h.n.x.x.J n.HX$.n ).mX-X0XT.fXgX:X:XL.qXfX$XdX!.#XdX$XuXQ.}.fXuXmX].}.fXyX5XZ p.c.l.Q > Q f 7 - l.d.M.l.c.x.x.x.",
"4.6.6.h.s.x.6.* HXS.n.n.J x.v.{ N ).nX-XiXT.gXgX$XmXI.SXfX=XMXW.=XdXgXgX].}.jXfXmXQ.[.tX$X}.M q.V.C._ < Q Q h 8 l.d.a.a.6.5.6.k.",
"a.l.s.a.6.s.s.K c.k.s.S.K k.S.m.& ).xXpX4XT.pXgX=XAXF 8XSXCXUXE. X,XsXxXR.{.pXpXDX].[.fXkXhXm #.C.V._ 1 Q 8 > = l.d.s.k.l.k.x.v.",
"b.b.>.` X.[ o.8 PXS.a.a.+ > > * * R cXpX4XP.aXpXDXwXG %.7XeXUXI.wXSXSXSX_.OXSXZXZX^.|.CXVXeXn =.= 1 + $ h ^ ~ h M.M.M.b.c.f.6.s.",
"` ) - 0 ' l 9 0 ` ) 0 l   ` _ [ & R cX,X0XI.0XiXwX/.V K 8.6X%.S T XX).XXI Y XXR XXY T XX`.XX. u y.p.f $ < = @   | o.X._ ! ] { ! ",
"0 - % ' d.t.t.2.) ` > 9 9 D.D.S.& ).cX,X4XI.0X0X~.b $ k >.L { { { $.( &.Q ` 7.E $.L *.Y I { w 9.N.B.^ < 8 h | | > 8 8 , J ] { { ",
"g 8 < _ r.<.,.<.i.,.f. .Q l.C.X.# ).cXiX0XU 4X0XF # ..v ^ &.^ .. .o.' k -.-.:.' K K &.O.' k 4 9.u.C.] ^ <.p.@.! +.4.p.8 @.c.f.c.",
"W 8 2 _ i.<.@.<.<.@.4.+.1 B.k.( N _.CXhX4X~.pXhX|.m r } ( A + + * A & * 4 % 0 & Z n N N # 6 O v N.V.X.! 4.&.X.! #.4.s.1 @.v.s.f.",
"Q J > ! i.o.@.<.@.4.<.@.> A.a.K m oXNX=XuXR.dXdXAXOXm S /.@X8XT OXwXwX@X).).9XOX0XR.(.OX9XJXH 7.x.h.! ! <.<.O.X.X.<.7.8 7.x.f.s.",
"Q J > _ 5.O.<.<.#.1.4.o.> C.f.K m (.NX=X%XY.-X:X,X<XT XXwXSXUXI.>X1X,XzX^.{.vX,X,X!..XAXAX+Xm H h.s.W ! 4.7.O.7.O.7.O.J 4.f.f.s.",
"J 8 > ) 4.@.@.<.o.o.1.f 2 p.k.J m oXcXpX4XY.yXkX=X*XF eXcX%XhXP.-X1X,X1X^.|.MXNXFX[..XCXZXwXZ 8.HXc.! ! 4.O.O.<.>.4.X.K s.s.l.s.",
"J Q > ` 1.@.,.<.1.o.4.8 > 1.f.! b XXCXiX4XR.-XgX=XzXF 0X#X$XVX].*X-X,X,X^.{.cXlXNXQ.{.0XqXrXB $.v.b.] ' 7.1.@.7.1.4.] ! l.s.c.a.",
"g 8 > ) r.,.,.<.i.+.r. .7 d.B.7.B XXZXlX0XT.fXgX;XVXT.ZXuXgXuXL.tXfX*XAX~.2XqXaXhX'.{.qXeXrXN V x.b.] ' @.1.5.1.>.4.' Q b.a.l.a.",
"g g - ) t.,.,.,.,. .+.t.7 D.C.B.V XXKXeXeXP.BXxXDXvXF SXxXxXvX'.5XBXlXGXU 2XqXqXBX^.2X9XeXrXB P c.S.2.Q o.<.<.` <.1.g ' M.5.z.a.",
"h 7 j ) y.d.,.) g ) t.,.h h  .` & E 8X8X;.R _.9X7X7XT 8X9XOX7XU _.7XOX_.R R 6XrX9X/.R 7XrX%.S # ` 8 g ` y.1.,.1.r.d.h g N.S.t.N.",
"7 : : < j j 7 : j : 6 f 7 l ..h l ' E E ( P H H Z H A L L Y ( V P H Y L P K L Y *.D B L *.( =.=.) l g j g h ) ) 7 k 7 < ` ) ~ :.",
". . . . . : . : : . . 6 l u.N.u.N.u.1.1.N.D.D.D.PXS.J.J.H.H.J.J.S.H.H.A.J.J.G.G.PXG.H.H.PXZ.F.G.N.u.y.6 .     O . . : . . . : 7 ",
"d p p 6 5 d j s ..c s p ; : ; 3 3 y 0 6 d x :.:.:.-.e.w.-.:.9.e.w.e.e.e.F.K.J.J.F.J.J.F.q.9.z u s j j : o p k k k p 6 p ; p k s ",
"s d i ; i i 5 3 o o ; X X X ; p e p 6 ; q q e 6 6 . e e 5 s a z o 3 : ; w x e.u.u.1.-.l p - t 3 c d 5 5 X X 5 5 d o X 3 o ; p o ",
"i X o X t a i X i a i y v s i a 0.z p i z z e X j ; e e p l z v 5 5 : ; q q i p j 6 4 . : 6 y y d o o 3 d 3 X d i 5 c c d p s 3 ",
"a a a v c c v v q a X t v a q i e q q q u z a i s d e e 6 o e q 3 i r a z z z v 5 4 4 y l d y y d t q i a d a t o 3 s s t t i q ",
"t t i z z a t q t a t q a q o z e w y u u u y y p j e r 5 . z a i p e e w a z e s y y v v d y y 3 i i t i x c v a t t t t i i t "
};
