/* XPM */
static char *_4fdb048f0d9490cdd11529c887e06b1Xym4V2soage2H5rf[] = {
/* columns rows colors chars-per-pixel */
"63 70 150 2 ",
"   c None",
".  c #030000",
"X  c #0C0000",
"o  c #3E0101",
"O  c #211918",
"+  c #3B1F1D",
"@  c #410B04",
"#  c #4A0C05",
"$  c #530700",
"%  c #5B0601",
"&  c #520801",
"*  c #5F1506",
"=  c #690E03",
"-  c #750F00",
";  c #7C0E00",
":  c #631307",
">  c #6E1405",
",  c #671805",
"<  c #631509",
"1  c #771100",
"2  c #791000",
"3  c #4E281F",
"4  c #472822",
"5  c #482B24",
"6  c #694742",
"7  c #674840",
"8  c #684A47",
"9  c #644C49",
"0  c #820E00",
"q  c #831603",
"w  c #8B1502",
"e  c #8B1803",
"r  c #801909",
"t  c #8A1B08",
"y  c #9D1A05",
"u  c #981D0A",
"i  c #A21C06",
"p  c #8D250D",
"a  c #94220D",
"s  c #98250D",
"d  c #9F290F",
"f  c #942310",
"g  c #9E2A12",
"h  c #AC2505",
"j  c #A4270D",
"k  c #AF2408",
"l  c #A3290E",
"z  c #A9290A",
"x  c #B02303",
"c  c #AC340E",
"v  c #A12712",
"b  c #A12911",
"n  c #B53618",
"m  c #C72E0A",
"M  c #D72C04",
"N  c #D92B04",
"B  c #D62E09",
"V  c #DE320D",
"C  c #DE3B16",
"Z  c #DA3C1A",
"A  c #EC390A",
"S  c #E53715",
"D  c #E13A16",
"F  c #E23A19",
"G  c #EA3D1B",
"H  c #F13B13",
"J  c #F73F1C",
"K  c #F83F1E",
"L  c #F5401C",
"P  c #EF641E",
"I  c #F1661B",
"U  c #EF4220",
"Y  c #F74020",
"T  c #EC6525",
"R  c #E7662D",
"E  c #EA652A",
"W  c #F06521",
"Q  c #E76533",
"!  c #8B645C",
"~  c #85685F",
"^  c #D44A56",
"/  c #CD674E",
"(  c #CB684E",
")  c #D2604A",
"_  c #DD614A",
"`  c #D76B53",
"'  c #C57162",
"]  c #C57E6E",
"[  c #CB7C6D",
"{  c #D47866",
"}  c #C47E71",
"|  c #C97E71",
" . c #BD8275",
".. c #C48072",
"X. c #CA8477",
"o. c #CA8478",
"O. c #CE8A7D",
"+. c #D18B7E",
"@. c #EA8E76",
"#. c #918580",
"$. c #95908C",
"%. c #9C9C95",
"&. c #C48E82",
"*. c #D99387",
"=. c #DB9689",
"-. c #C29793",
";. c #E09283",
":. c #E19C8F",
">. c #E19E90",
",. c #DBA49A",
"<. c #E6A194",
"1. c #E2A79F",
"2. c #E0A89F",
"3. c #EFAD9F",
"4. c #F1AC9F",
"5. c #FEAF9B",
"6. c #FFB19F",
"7. c #E0A6A2",
"8. c #EBADA4",
"9. c #F3AEA2",
"0. c #E9BAAF",
"q. c #F7B5A7",
"w. c #F8B4A7",
"e. c #F9B4A7",
"r. c #F9B5A7",
"t. c #F9B5A6",
"y. c #F9B5A6",
"u. c #FAB4A6",
"i. c #F6B3AA",
"p. c #F5B5A9",
"a. c #F7B5A9",
"s. c #F7B5A9",
"d. c #F5B5AB",
"f. c #F7B5AA",
"g. c #F6B6AA",
"h. c #F6B5A9",
"j. c #F9B4A9",
"k. c #FAB5A9",
"l. c #F9B4A9",
"z. c #F2B8AE",
"x. c #EDBAB3",
"c. c #CEC7BE",
"v. c #F2C0B6",
"b. c #CDC7C1",
"n. c #E8E5DF",
"m. c #ECEEE5",
"M. c #F7EFE6",
"N. c #FAEEE2",
"B. c #FAEDE5",
"V. c #F9EEE3",
/* pixels */
"        d.d.d.} d.d.d.O.} d.d.q...                                                          ..q.q.q.d...d.d.q.} l.i.d.4       ",
"      z.q.q.w.q.] w.q.q.4...w.w.w. .d.                                                  d. .d.w.q.w...w.w.w.} u.w.q.q.d.~     ",
"    i.q.q.q.q.q.} w.q.q.4...q.q.d.] q.i.                                              j.d.] q.q.q.q.} q.q.q.} q.q.q.q.q.d.7.  ",
"    q.q.q.q.q.q.} q.w.q.3.} q.q.w.} q.q.                                              w.w.} q.q.q.q.] w.q.q.} q.q.q.q.q.q.2.  ",
"    w.w.q.w.q.q.} q.q.q.3.} q.q.q.] p.q.                                              d.q.] p.p.q.q.} q.q.q.} q.q.q.q.q.q.7.  ",
"    w.} ] q.q.q.} q.q.j.4.} q.d.q.} q.q.                                              j.q.] q.q.w.w...q.q.w.] q.q.q.....=.,.  ",
"    w.} q.q.q.q.} q.q.+.} } ] } } } } j.                                              q.} } } ] } } ] } w.q.} d.q.q.r...=.2.  ",
"    w.} q.q.q.q.} w.q.+...w.} } q.q.q.}                                               } p.q.p.} } } w...w.w.] q.q.q.r...=.1.  ",
"    q.] q.q.q...w.q.} } } j.} } q.q.q.q.q.                                          r.r.p.q.w.] } } q.} } q.q.] q.q.q.] =.7.  ",
"    q.p.] ......] } } } } q.q.q.q.q.q.q.q.                                          g.g.q.p.q.q.q.q.u.} } } } } ......3.p.,.  ",
"    q.q.q.q.r.q.q.} 9.O.] p.w.w.w...q.q.q.                      x                   w.q.q.} w.q.q.q.q.] q.} q.q.q.q.q.q.r.2.  ",
"    q.q.q.q.q.q.w.} 9.q.3.} } } ..q.q.q.q.              x h     x x       x h       q.q.w.p.} } } } } w.d.} q.q.q.q.q.q.q.2.  ",
"    q.q.q.q.q.q.q.w...>.q.q.w.u.....w.q.                  x x x x x   p x l           d.w...] w.u.w.w.w...q.q.q.q.q.q.q.q.,.  ",
"    q.q.q.q.q.q.q.q...=.q.q.q.q.w.w.q.              j j j x x x x x j h x h l l         q.q.w.q.d.q.q.q...q.q.q.q.q.q.q.q.2.  ",
"    q.q.q.q.q.q.w.q.} o.O.q.q.q.r.q.6               & x x h x x x x x x x x h &         7 j.q.w.q.y.w.+...q.q.q.q.q.q.q.g.8.  ",
"    ,.q.q.q.q.r.3.3.o.o.X.q.q.q.,.,.                  x x x x x x x x x x x h             ,.,.,.8.q.w.o.o.q.q.q.q.q.q.q.8.-.  ",
"      g.w.q.q.q.....q.q.q.q.q.w.                o h x x x x h h h h h x x x x x h               0.q.q.q.q.q.q.q.q.q.q.q.!     ",
"      q.q.q.q.q.q.q.q.q.q.q.q.q.                    x x x x j.w.d.q.q.n x x x k                 x.q.q.q.q.q.q.q.q.q.q.q.!     ",
"      q.q.r.q.q.q.q.q.q.q.p.q.q.q.D D                 x x ..w d.q.q.e ' / x k             C A 5.q.q.q.q.q.q.q.q.q.q.q.q.!     ",
"      w.q.q.q.q.q.q.q.q.q.q.q.q.q.d.D S L 2 1 1 ,   x x x ..X.w } e ] ..( x x x   N C D C D u.q.q.q.q.q.q.q.q.q.q.r.q.q.!     ",
"      q.q.q.q.q.q.r.q.q.q.q.r.q.q.q.D D L J 0 2 q h ....x ..V.M.| N.M.&.( z } | x L D D D D q.q.q.q.q.q.q.q.q.r.q.q.q.q.!     ",
"      q.q.q.q.q.q.q.q.q.q.q.q.q.q.j.C F L J q 2 1 1 q...x j.V.. d.. M.v.@.h } j.L L D D C S u.q.q.q.q.q.q.q.q.q.q.q.q.r.!     ",
"      q.q.q.q.q.q.q.q.q.q.q.q.q.q.q.N N F D ; - 1 1 w.w.x d.j.^ ^ ^ l.l.@.h w.q.A A N N N N 4.q.q.w.q.q.q.q.q.q.q.q.q.q.!     ",
"      q.q.q.q.q.q.q.q.q.r.g.q.q.q.q.N N D D 0 - 1 2 2 1 w.w.j.^ ^ ^ l.j.u.u.2 A A A M N N N ] w.q.q.y.q.q.q.q.q.q.q.q.r.!     ",
"      q.q.q.q.q.q.q.g.r.q.q.q.q.j.} N N D D Z u - 1 1 | d.w.q.u.u.l.i.w.w.u.[ A A A N N N N [ w.q.q.q.q.q.r.q.q.q.q.q.3       ",
"        q.r.q.q.q.q.q.q.q.q.w.q.q.} N N F F C y 1 1 1 u.q.X n.n.n.n.n.O + d.u.A A A N N N N [ w.q.q.q.q.q.q.q.q.r.q.q.5       ",
"        ! g.q.q.q.q.q.q.q.q.w.w.*.) V V G G G y 1 2 1 d.9 $.m.m.M.m.m.%.#.8 l.H H H V V S V _ ;.<.q.q.q.q.q.q.q.q.r.!         ",
"          z.q.r.q.q.q.q.w.q.q.w.} F D D J Y J i 1 1 1 w.. N.V.V.B.B.B.B.b.X u.J J L Z D D D J { =.q.q.q.q.q.w.q.z.z.          ",
"            q.g.q.q.w.r.q.q.w.w.} C D C J J L i 1 1 1 d.. V.B.B.N.N.N.N.c.X w.J Y J l D D D L { =.q.w.w.q.j.d.j.              ",
"                q.q.d.q.q.w.d...D D D F J J 0 2 1 1 1 1 d.j.j.j.j.j.j.w.d.6.M J J L l F F F L L _ } } } j.j.                  ",
"                    z.w.4...] L D D D D J J 0 - 1 2 1 1 N } ............` M N J L L F l D D L L L L L N                       ",
"                            N N N N M N C C ; - 1 1 1 1 M N N N N N N N N N A A A A N l N N A A A Z                           ",
"                                  B M N D ; 1 1 1 1 1 1 N A N N N N N N N N A A A A N N l N A N r                             ",
"                                  1 1 N S 2 2 1 1 1 1 1 N A A A A N N N N N A A A A N N N l A N r                             ",
"                                  1 1 1 1 T ; 2 1 1 1 I N A A A A N N N N N A A A A N N N M A N r                             ",
"                                  1 1 1 1 W W I P P P P b L L J L D D C S S L L L L D S D S L                                 ",
"                                  1 1 1 1 - T c 1 2 I 2 b L J J L D F D S S L L J J D D F D J                                 ",
"                                  1 2 1 1 1 E E R R P 2 l k J J L C D F D S L L J J D D D F Y                                 ",
"                                  1 1 1 1 1 T T I T P 1 s l Z L L S F F F S L L J J D F D C Y                                 ",
"                                  1 1 1 1 2 Q T T T T 1 1 l g Y Y D S S S S K L J J D D S F J                                 ",
"                                    1 1 1 1 1 1 1 1 1 1 1 l l l d B B M N N A A A A N N N N A                                 ",
"                                    1 1 1 1 1 1 1 1 1 1 2 l l l l l l m N N A A A A N N N B A                                 ",
"                                    1 1 1 1 1 1 2 1 1 1 1 1 l l l l l l l z A A A A N N N N A                                 ",
"                                    1 1 1 1 1 1 1 1 1 1 1 1 b l l l l l l l l l l A N N M N A                                 ",
"                                    1 1 1 1 1 1 1 1 2 1 1 1 2 b l b l b l l l l z l l l D D L                                 ",
"                                    1 1 1 1 1 1 1 1 1 1 1 1 1 1 1 1 1 1 q l l l l l l l l l 2                                 ",
"                                    1 1 1 2 1 1 1 1 1 2 1 1 1 1 1 1 1 1 1 1 1 1 2 1 1 1 1 1 1                                 ",
"                                    1 1 1 1 1 1 1 1 1 1 1 1 1 1 1 1 1 1 1 1 1 1 2 1 1 1 1 1 1                                 ",
"                                    1 1 1 2 1 1 2 1 1 1 1 1 1 1 1 1 1 1 1 1 1 1 1 1 1 1 1 2 1                                 ",
"                                    1 1 1 1 1 1 1 1 1 1 2 1 1 1 1 1 1 1 1 1 1 1 1 2 1 1 1 1 1                                 ",
"                                    1 1 1 1 1 1 1 1 1 1 1 1 1 1 1 1 1 1 1 2 1 1 1 1 1 1 1 1 1                                 ",
"                                    1 2 1 1 1 1 1 1 1 1 1 1 1 1 1 1 1 1 1 1 1 1 1 1 1 1 1 1 1                                 ",
"                                    1 1 1 1 1 1 1 1 1 1 1 1 2 1 1 1 1 1 1 1 1 1 1 1 1 1 1 1 1                                 ",
"                                    1 1 1 1 1 1 2 1 1 1 1 1 1 1 1 2 1 1 1 1 1 2 1 2 1 1 1 2 1                                 ",
"                                  1 - 1 1 2 2 1 1 1 1 1 1 1 1 1 1 1 1 1 1 1 1 1 1 1 1 1 1 1 2 1 #                             ",
"                                  1 1 1 1 1 1 1 1 1 1 1 1 1 1 1 1 1 1 1 1 1 1 1 1 1 2 2 1 1 1 1 #                             ",
"                                  1 1 v 1 v 1 a g 1 2 1 1 1 1 1 1 1 1 1 1 1 1 1 1 b 1 b 2 b 2 1 #                             ",
"                                1 1 v 2 b 2 g t q g 1 1 1 1 2 1 1 1 1 1 1 1 1 1 b 2 b 1 b 1 g 2 1 >                           ",
"                                1 1 1 v 2 b 2 a g 2 1 1 1 1 1       1 1 1 1 1 1 2 v 1 b 1 b 2 2 1 >                           ",
"                                2 1 g 2 v 2 v t r v 1 1 1 1 1       > 1 1 1 1 1 v 2 v 1 b 2 g 2 1 1                           ",
"                                1 1 1 g 2 g 2 s g 1 1 1 1 1           < 1 1 1 1 ; v 1 v 1 b 1 1 1 ,                           ",
"                                1 1 1 f 1 f 2 t a 1 1 1 2 1           < 1 1 1 1 ; f 1 f 1 f 2 1 1 ,                           ",
"                                1 1 1 1 1 1 1 1 1 1 1 1 1 1           < 1 1 1 1 1 1 1 2 2 2 1 1 1 ,                           ",
"                                1 1 2 2 # 1 1 1 1 1 1 1 1 1           < 1 1 1 1 1 1 1 > % > 1 2 #                             ",
"                                  & 1 & 1 & 1 1 1 1 & 1 1 1           * 1 1 1 & 1 1 1 & 1 & 1 &                               ",
"                                  1 & 1 & 1 % = > # 1 & 1 &           @ % 1 & 1 $ 1 & 1 & 1 & 1 #                             ",
"                                q.q.g.g.q.q.r.w.l.q.d.]                     } q.q.q.d.q.g.j.q.q.d.z.                          ",
"                              r.g.q.q.g.q.q.q.+.} q.q.]                     } w.q.] d.q.q.q.g.q.f.j.d.                        ",
"                              r...q.q.] d.w...:.q.q.q.}                     ] q.q.w...w.w...r.q.=.] q.                        ",
"                              r...q.w...d.w...>.q.q.j.                        q.q.q.] d.w.} w.w.=...d.                        "
};
