/* XPM */
static char *_fe174a0de4740e8e6cc33d669778b03mS8Zcp5NKs4uTgs3[] = {
/* columns rows colors chars-per-pixel */
"59 70 91 1 ",
"  c None",
". c #363202",
"X c #363203",
"o c #373203",
"O c #363303",
"+ c #FCAC0C",
"@ c #FCAC0D",
"# c #FDAC0D",
"$ c #FCAD0D",
"% c #F6B608",
"& c #FAB008",
"* c #FBB008",
"= c #FAB108",
"- c #FBB108",
"; c #FAB109",
": c #F8B40D",
"> c #F8B50D",
", c #F8B50F",
"< c #F2B80C",
"1 c #F7B611",
"2 c #F6B814",
"3 c #F7B814",
"4 c #F6B815",
"5 c #F5B816",
"6 c #F4B916",
"7 c #F5B916",
"8 c #F4B917",
"9 c #F5B917",
"0 c #F1BC14",
"q c #F1BD14",
"w c #F1BC15",
"e c #F1BD15",
"r c #DED00A",
"t c #DFD00A",
"y c #DED10A",
"u c #DED00B",
"i c #DFD00B",
"p c #DED10B",
"a c #E2CB0A",
"s c #E3CB0A",
"d c #FCCD0E",
"f c #FDCD0E",
"g c #FCCC0F",
"h c #FDCC0F",
"j c #FCCD0F",
"k c #FDCD0F",
"l c #E3D00C",
"z c #E3D00D",
"x c #E2D50C",
"c c #F7D70C",
"v c #FCDA0D",
"b c #FCDC0D",
"n c #FDDC0D",
"m c #FCC315",
"M c #FCC617",
"N c #FDC617",
"B c #FCC717",
"V c #FCE00C",
"C c #FDE00C",
"Z c #FAE60E",
"A c #FBE60E",
"S c #FAE70E",
"D c #FBE70E",
"F c #FAE70F",
"G c #FCE60C",
"H c #FCE70C",
"J c #FCE70D",
"K c #F2E80A",
"L c #F3E80A",
"P c #FAEA0D",
"I c #FCF40A",
"U c #FDF40A",
"Y c #FCF50A",
"T c #FDF50A",
"R c #FCF40B",
"E c #FCF50B",
"W c #F4FC0E",
"Q c #F4FC0F",
"! c #F5FC0F",
"~ c #F4FD0F",
"^ c #FCD144",
"/ c #FCD145",
"( c #FCD47A",
") c #FCD57A",
"_ c #FCD47B",
"` c #FDD47B",
"' c #FCD57B",
"] c #FDD57B",
"[ c #FCE089",
"{ c #FCE690",
"} c #FCE790",
/* pixels */
"                                                           ",
"                                                           ",
"                                                           ",
"                                                           ",
"                                                           ",
"                                                           ",
"           ====mMMMMMkgkkffjk/(_''''__'#++$@#$             ",
"           ====mMBMMMkkgkkjdj/(_'''''_(#++@@$$             ",
"           ====spuurupuuaprpuuuuuuuuuupuupuuuu             ",
"           ==*=supprpuurpuppauupluuuuuuuuuuuuu             ",
"              ====jjkkkgjjjjjjjkgdffjgddjkuru              ",
"              =484jkkkjjjjjkkjjjjdddjddddfru               ",
"              *484jjjjjkkjjkkkjkgjffkjfdgjpp               ",
"              *==4jjjkjfdjjjkkjIjdffvRIRIIxp               ",
"      FFFFP==*=38848jjJIIIIIEIIIRRIIIERRIIpxFFFFFFFF       ",
"    FFgggkkkkkpe4848kjJIIIIIIIIIRRIIIIRRIIusgkfggdffF      ",
"    FFffkkjjjkr04448jfPRIIIIIIIIIIIIIIIIIIpadkjkffjjF      ",
"    JFffkfkkjkrq8484djJRIIITTIIIRIIIIIIIIEpp       jF      ",
"    FFj       ue84jjddJRIIIIIIIIIIIIIRIIIIpp       kF      ",
"    FFk       ue48jjdfGRIIIIIIIIIIIIIIRIIIpp       jF      ",
"    FFd       rq84jjddFIIIIIIIIIIUUUIIIIIIxu       kF      ",
"    FGf       rq04jjdRIIIIIIIIIIUUIUIIIIIIup       jF      ",
"    FFd       uq88jjdfGIIIIIIIIIIIIIIIRRRRup       jF      ",
"    FFk       ue48jjjfGIIIIIIIIIIIIIIIIRRRup       kF      ",
"    FGd       ue88kkjdFRRRRRIIIIIIIIIIIIIIpp       dF      ",
"    FFddfk    ue4*==jjffRRIRIIIIIIIIIIIIIIpp    kjkdF      ",
"    FFdfjk    re4===jkjjIIIIIIIIIIIIIIIIIIpp    jdfdF      ",
"      FFjk    r%=848jjjjdIRIIIIIIIIIIIIIRRup  kkdFFF       ",
"        PFdjjju%==84kkkkdddjRRIIIIIIIIIIRRup  jjF          ",
"        FFddjjuupp==84,=ddgjRRIIIIIIIIIuuuuakjjjF          ",
"        FFffjduupu==44,=dgjjIIIIIIIIIIIururxjjfdF          ",
"          FFFFFFFp===8404==jdbIIIIIIIIIurFFFPPPP           ",
"                 uuuu=18848jjVIIIIIIKuuyu                  ",
"                 uuuu;14884jjVIIIIIIKuuuu                  ",
"                    u===;84jjVIIIIIIKu                     ",
"                    uuuuu884jkjkluuuuu                     ",
"                         uu8=,48uu                         ",
"                         ul8=,84yu                         ",
"                         yu88,=8pu                         ",
"                         uu8=c!Quu                         ",
"                         pp8=cQQuu                         ",
"                         pu=QQ!!uu                         ",
"                         pubQQQ!ul                         ",
"                         pabQQQQuu                         ",
"                         pubQQQQuu                         ",
"                         uubQQWQuu                         ",
"                         pu+QQQQuu                         ",
"                         uu+QQQQuu                         ",
"                         uubQQQQuu                         ",
"                     uuuuuubQQQQuu''''                     ",
"                     u<#bbbbQQWQ!!{{['                     ",
"                     u<#bbbbQQQQQQ{{['                     ",
"                     u<@##+QQQQQQQ[}['                     ",
"                     u<@Q!QWQQQWQQ}}['                     ",
"                     u<@QWWWQQQQQQ}}[`                     ",
"                 OOOOO..OOOOOOOXOOOOOOOOOO                 ",
"                 OOOXX.....OXOXXOOOXXOXXXX                 ",
"                 OOOFFGFZZZZFGFFFFGFFGFXXO                 ",
"                 OXXFGFFSSZZFGFFFFFFZZFXOO                 ",
"                 XXXFFFGPSZGFFFFFFFFZZGXOO                 ",
"                 OOOXXOOOOXXOXXXXXOO..XXOO                 ",
"                 OOOXXXOOOXXOOXXXXXO..XXOO                 ",
"                 OOOXXOOOOXXOOOOXXOOOOXXOO                 ",
"                                                           ",
"                                                           ",
"                                                           ",
"                                                           ",
"                                                           ",
"                                                           ",
"                                                           "
};
