/* XPM */
static char *acffa420b3144dbecd0b96281bae731aac0lz1BKgOO65dgj[] = {
/* columns rows colors chars-per-pixel */
"64 64 86 1 ",
"  c None",
". c #363202",
"X c #373202",
"o c #363302",
"O c #363203",
"+ c #373203",
"@ c #363303",
"# c #B7A80A",
"$ c #B7A90A",
"% c #FCAC0D",
"& c #FDAC0D",
"* c #FCAD0D",
"= c #FAB008",
"- c #FAB108",
"; c #FBB108",
": c #FAB109",
"> c #F8B40D",
", c #FCBD0D",
"< c #F7B611",
"1 c #F5B816",
"2 c #F4B916",
"3 c #F5B916",
"4 c #F4B917",
"5 c #F5B917",
"6 c #F4BA16",
"7 c #DECF0B",
"8 c #DFCF0B",
"9 c #DED00A",
"0 c #DFD00A",
"q c #DED00B",
"w c #DFD00B",
"e c #DED10B",
"r c #DFD10B",
"t c #DFD00E",
"y c #FCCC0E",
"u c #FCCD0E",
"i c #FDCD0E",
"p c #FCCC0F",
"a c #FDCC0F",
"s c #FCCD0F",
"d c #FDCD0F",
"f c #FDD20E",
"g c #FCDA0D",
"h c #FDDA0D",
"j c #FCDB0D",
"k c #FDDB0D",
"l c #FCDC0C",
"z c #FCDC0D",
"x c #FAC611",
"c c #FCC616",
"v c #FCC716",
"b c #FCC617",
"n c #FDC617",
"m c #FCC717",
"M c #F6E20D",
"N c #F7E00E",
"B c #F7E60E",
"V c #FAE60E",
"C c #FAE70E",
"Z c #FBE70E",
"A c #FAE70F",
"S c #FBE70F",
"D c #FCE70C",
"F c #FAEA0D",
"G c #F7F10E",
"H c #F7F10F",
"J c #FCF30A",
"K c #FCF30B",
"L c #FCF40A",
"P c #FDF40A",
"I c #FCF50A",
"U c #FCF40B",
"Y c #FDF40B",
"T c #F4FC0E",
"R c #F4FC0F",
"E c #F5FC0F",
"W c #F4FD0F",
"Q c #F4FB13",
"! c #FCD57A",
"~ c #FCD47B",
"^ c #FCD57B",
"/ c #FDD57B",
"( c #FCE690",
") c #FDE690",
"_ c #FCE790",
"` c #FCE691",
/* pixels */
"                                                                ",
"                                                                ",
"                                                                ",
"                                                                ",
"                                                                ",
"            -----vbbmmmpddpppppp/^/^////^^/**&**&*              ",
"            -----vnnnnmpddssppfp^/^^^^/^^^~&&&***%              ",
"            -*-;-nvnnnmpdpsspppp^^^^^^/^^/^%%%***%              ",
"            --;;-888qqqrqqq998qqqqqqqqqqqqqqrqqqqq              ",
"               --=--ppppppppsusssppppppfsspsppqqr               ",
"               -;116ppfppfssssssppppfpppppppppq                 ",
"               -;<61ppppppssssssffzppppflgllggq                 ",
"               -;;16ppppppppussspgKippppIIPPPP8                 ",
"      AAZAAA----;6616ppsPLPPLPLPKIIKIPLLKIPPII8FAZAAAFAA        ",
"     Zppppdpppdt86663pfsLLPLKPIIIKIIIPPPIKIKII8pppypppppAA      ",
"     Zfpppfppppqr6166ppsLLLLIKIIKIKIIKPPKIKIKPq        yAA      ",
"     Appppfdpppqq6111pfpLLLLLLLLLLLLILLLLLLLIKq        dAA      ",
"     App       qr611ppppLPLLLLLLLLLLILLLLPLLKIq        fAA      ",
"     App       qq661ppppLLLLLLLLLLPLIKLLLPPPIKq        pAD      ",
"     Apf       tq616pfpILLLLLLLLLLPPKILLLLKIKIq        pAA      ",
"     App       q8666pddgKPLLLPKILLLLLLLLLLLLKI8        pAA      ",
"     App       q8666pfddIILLLPPKLLLLLLLLLLLLIKq        pAA      ",
"     Apf       q8666spppIILLLLKILLLILLLLLLLLKIq        pAD      ",
"     Fppppp    q86:::pppppLLLLIKLLPKLLLLLLLLIIq     pppfAA      ",
"      AAApp    q8-661ddppppIIIKILLLLLLLLKIKLLLq   pppAAA        ",
"      AADpp    tq-166dddpsdIIIIKLLLLLPLLIKPLLLq   fppAAA        ",
"         AFppfpqq-;;6addppppddDILLLLLLLLKIKILPq   ppD           ",
"         AFppppqqq88-166:-ppddDILLLLLLLLIKIqqqqspdppF           ",
"           AAZAAAAqq---6661;;pppLLIILLLLIIIqAAAFFFFF            ",
"                  qq888-66616pppLPKILLLLrqr8                    ",
"                  qqqqq-66161pppLLIILLLLqqqq                    ",
"                     qq-;-;61ppfLLIILLLLq                       ",
"                     qqqqqq666xpsss8qqqqq                       ",
"                           q86>-3339q                           ",
"                           q86>-333qq                           ",
"                           88166->3qq                           ",
"                           qq6>-QTTqq                           ",
"                           qt-NTTTTqq                           ",
"                           qqzGTTTTtq                           ",
"                           qqzHTTTTqq                           ",
"                           qqzGTQTTtq                           ",
"                           qqzGTTTTqq                           ",
"                           qq*NQTQTqq                           ",
"                           qq,BTTTTqq                           ",
"                           q7lGRTTTqq                           ",
"                       q98qq9gGRTQQet^^//                       ",
"                       r%%glllGRTQTTQ___^                       ",
"                       q%****QRRTTTTQ___^                       ",
"                       q*%%%%RRRRRRRQ(((/                       ",
"                       7%&RRRRRRRRRRQ(((^                       ",
"                  @++++@@@++@.@+@@..+@+@++@@++                  ",
"                  @+++@@@@++@@@+....@@++++@+++                  ",
"                  +++$$$######$$##$$$$$$$$$O@@                  ",
"                  +++AAAABAAFDBDBAAADABABFAO@+                  ",
"                  @@+ABAAAABABAAABAABADAABA+++                  ",
"                  @@@+@++++@+@++++++@@@++@++++                  ",
"                  ++++++@@+++++++++++@@@+++@@@                  ",
"                  ++@@++@+++@++O@@++@@O.+++@@@                  ",
"                                                                ",
"                                                                ",
"                                                                ",
"                                                                ",
"                                                                ",
"                                                                "
};
