/* XPM */
static char *_ccab1a7cfea42d6962bf9de60a7b86byOb72XJV7oLKuT9W[] = {
/* columns rows colors chars-per-pixel */
"84 70 112 2 ",
"   c gray10",
".  c #2A1310",
"X  c #2F1D1B",
"o  c #3E1B16",
"O  c #331F1D",
"+  c #381E1A",
"@  c #242222",
"#  c #2D2625",
"$  c #2C2C2C",
"%  c #302725",
"&  c #3A2421",
"*  c #392B29",
"=  c #363333",
"-  c #383131",
";  c #3D3C3C",
":  c #591209",
">  c #451C16",
",  c #491811",
"<  c #421E19",
"1  c #651408",
"2  c #68170C",
"3  c #6C1A0E",
"4  c #771104",
"5  c #751608",
"6  c #7A1508",
"7  c #781A0C",
"8  c #631D13",
"9  c #711F13",
"0  c #7C1E10",
"q  c #43211C",
"w  c #722114",
"e  c #452E2B",
"r  c #4A2F2B",
"t  c #512621",
"y  c #552A25",
"u  c #5A2922",
"i  c #4C312E",
"p  c #4F3430",
"a  c #443B3A",
"s  c #56413F",
"d  c #69443F",
"f  c #70453F",
"g  c #434343",
"h  c #4C4342",
"j  c #4B4B4B",
"k  c #544442",
"l  c #544847",
"z  c #5A4A47",
"x  c #544C4A",
"c  c #594F4D",
"v  c #515151",
"b  c #595250",
"n  c #5E5857",
"m  c #5E5858",
"M  c #6C4742",
"N  c #6D4842",
"B  c #694F4B",
"V  c #734943",
"C  c #784D46",
"Z  c #7A4F49",
"A  c #605857",
"S  c #6E5855",
"D  c #615A59",
"F  c #7F5D59",
"G  c #861405",
"H  c #871506",
"J  c #8E1908",
"K  c #971300",
"L  c #961201",
"P  c #971201",
"I  c #971503",
"U  c #991200",
"Y  c #981201",
"T  c #991201",
"R  c #991403",
"E  c #981504",
"W  c #9B1805",
"Q  c #9C1906",
"!  c #9D1A06",
"~  c #951D0D",
"^  c #AF1701",
"/  c #B31700",
"(  c #B31601",
")  c #B31701",
"_  c #B01602",
"`  c #B01902",
"'  c #B01803",
"]  c #B11803",
"[  c #B21903",
"{  c #B11904",
"}  c #942112",
"|  c #AD210D",
" . c #AA2512",
".. c #8A382D",
"X. c #973B2E",
"o. c #9C3B2D",
"O. c #8A3B30",
"+. c #9C3F31",
"@. c #805D56",
"#. c #875E57",
"$. c #805C58",
"%. c #805D58",
"&. c #815C59",
"*. c #805E5A",
"=. c #875E58",
"-. c #865F59",
";. c #865F5A",
":. c #885F5A",
">. c #82605B",
",. c #87615A",
"<. c #86605B",
"1. c #88615A",
/* pixels */
"E I R R R I R I I R v ` ` { ` { ] ] ] ] { E Y P E E E E I I T v ` ` { { ` ` ] ] ] ] E Y E E E E T E E R v ` { / ^ { { { { ' { E T Y E E Y E E R R v ' ' ` { ` ` / { ` { ",
"T T T T T T R T K T j / / / / / / / / / / T T T T T T T T T T j / / / / / / / / / / T T T Y K E T T T T j / / / / ] / / / / / T T T T T T E T T T j / ` / / ( ( ( ( / / ",
"I T T T T T T K T T j / / / / / / / / / / T K T T T T T T T T j / / / / / / / / / / T T T T T T T T T T j / / / / / / / / / / T T T T T T T T T T j / / / / / / / / / / ",
"T T T T T T T T T T j / / / / / / / / / / T T T T T T T T T K j / / / / / / / / / / T T K T T T T T T T j / / / / / / / / / / T T T T T T T T T T j / / / / / / / / / / ",
"T T T T T T T T T T j / / / / / / / / / / T T T T T T T T T K j / / / / / / / / / / T T T T T T T T T T j / / / / / / / / / / K T T T T T T T T T j / / / / / / / / ( ` ",
"D A m D D ; n n m m b n m m m @ D A A A D D m A D D ; m m n m b m m m m @ m m m D D D A m A D ; D n A A b A A m D @ m m m m D D m n n D ; A A A n b A A A A @ A m n D D ",
"/ / / / / @.T K T T T T T T T o / / / / / / / / / / F T T T T T T T T K o / / / / / / / / / / #./ / / / / / / / / > K T T T E T T T T T #./ / / ` / / / / / < T T T T T ",
"/ / / / / F T T T T T T K K K o / / / / / / / / / / F T T T T K T T T T o / / / / / / / / / / :./ / / / / / / / / > T T T T T T T T T T -./ / / ( ( / / / / > T T T T T ",
"/ ( ( ( / $.T T T T T K T T T o / / / / / / / / / / @.T T T T T T T T T < / / / / / / / / / / -.^ / / / / / / / / > K T T K T T T T T K #./ / / ( ( / / / / > T T T T T ",
"/ ( ( ( / F T P T T T K T T T o / / / / / / / / / / @.T K T T T T T T T > ( / / / / _ / / / / -./ / / / / ^ / / / > T T T T T T T T T T #./ / / / ( ` ^ / / > T T T T T ",
"9 9 9 9 9 a 8 8 8 8 : 8 8 8 8 X 9 9 9 9 9 9 9 9 9 w s 8 8 8 8 : 8 8 8 8 O 9 9 9 9 9 9 9 9 9 9 s 9 9 9 9 1 9 9 9 9 O 8 8 8 8 8 8 8 8 8 8 s 9 9 9 w 1 9 9 9 9 O 8 8 8 8 8 ",
"T K Y Y K ^ T T T T v / / / / / ^ / / / / T T T T T T K T T T v / / / / ( ( ( _ ( / T T T T T T T T T T v / / / / / / / / / / R T T T T T T T T T v / / / / / / / / / / ",
"T T T T T T T P T K j / / / / / / / / / / T T T T K T K T T K j / / / ^ / / _ _ ( ( K T T T T T T T T T j / / / / / / / / / / T T T K K T K T T T j / / / / / / / / / / ",
"T T T T P T T T T K j / / / / / / / / / / K T T T T T T T T T j / / / / / ^ / / ( ( T T K T T K T T T T j / / / / / / / / / / T T T T T T T T T T j / / / / / ^ / / ^ / ",
"T T K T K K T T T T j / / / / / / / / / / T T T T K T T T T T j / / / / / ^ / / / / T T T T T K T T T T j / / / / / / / / / / T T K T T T T K T T j / / / / / / / / / / ",
"K K K K K K K K T K j / ^ ^ ^ ^ ^ ^ / ^ ^ K K K K K K K K K K j ^ ^ / / / / / ^ / ` K K K K K K K K K K j ^ / ^ ^ ^ ^ / ^ ^ ^ K K K K K K K K K K j / ^ / ^ ` / ^ / ^ ^ ",
"1.,.-.-.,.c F F F F >.F %.F %.% ,.-.-.-.-.-.-.-.-.,.c F F &.F %.&.F F F # -.-.-.-.-.-.-.-.-.-.c F &.&.&.*.F %.%.F % ,.-.-.-.:.-.,.-.-.:.c %.%.%.%.>.%.%.F %.# 1.-.-.-.-.",
"/ / / / / F K T T T T T T R T o / / / / / / / / / / F T T T T T K T T T o / / / / / / / / / / &.T T T T T T T T T o / / / / / / / / / / %.T T T T T T T T T o / / / / / ",
"/ / / / / F T T T T T T R T T o / / / / / / / / / / F T T T T T T T T T o / / / / / / / / / / &.T T T T T T T T T o / / / / / / / / / ( F T T T T T T T T T o / / / / / ",
"/ / / / / F T T T T T T T T T o / / / / / / / / / / @.T T T T T T T T T o / / / / / / / / / / F T T T T T T T T T o / / / / / / / / / ( %.T T T T T T T T T o / / / / / ",
"( ( ( ( / F T T T T T T T T T < / / / / / / / / / / F T T T T T T T T T o / / / / / / / / / / F T T T T T T T T T o / / / / / / ( ( ( ( F T T T T T E T T T o / / / / / ",
"i r r r r = e e e e . e e e e # r r r r p p r r r i - e e e e . e e e e # r r r r p p r r r r - e e e e . e e e e # r r r r p p r r r r = e e r e . e e e e # i r r e p ",
"T T T T T T T T T T j / / / / / / / / / / T T T T T T T T T T j / / / / / / / / / / T T T T T T T T T T j / / / / / / / / / / T T T T T T T T T T j / / ( / / / / / / / ",
"T T T T T T T T T T j / / / / / / / / / / T T T T T T T T T T j / / / / / / / / / / T T T T T T T T T T j / / / / / / / / / / T T T T T T T T T T j / / ( ( / / / / / / ",
"T T T T T T T T T T j / ( / / / / / / / / T T T T T T T T T T j / / / / / / / / / / T T T T T T T T T T j / / / / / / / / / / T T T T T T T T T K j / / / / / ( / / / / ",
"T T T T T T T T T T j / ( ` / / / / / / / T T T T T T T T T K j / / / ( / / / / / / T T T T T T T T T T j / / / / / / / / / / T T T T T T T T T T j / { / / / ( / / / / ",
"G G G G H G H H G H g Q W W Q T Q E E Q Q H H H G G H G G G G g E Q Q E Q Q Q Q Q Q G H H G G G H G H H g Q W W E E Q Q E Q Q H G G H H G G G G H g ` E E Q Y Q E E Q Q ",
"o.o.o.o.o.S ........X.........& o.o.o.o.o.o.o.o.o.o.S ....X.............& o.o.o.o.o.o.o.o.o.o.S ......X...........& o.o.o.o.o.o.o.o.o.o.S ..................& o.+.o.o.o.",
"( ( / / / %.T T T T T T T T T o / / / / / / / / / / F T T T T T T T T T > ^ / / / / / / / / / %.T T T T T T T T T o / / / / / / / / / / @.T T T T T T T T T o / / / / / ",
"/ ( / / / %.T T T T T T T T T o / / / / / / / / / / &.T T T T T T T T T o / / / / / / / / / / %.T T T T T T T T T < / / / / / / / / / / %.T T T T T T T T T o / / / / / ",
"/ / / / / %.T T T T T T T T T o / / / / / / / / / / &.T T T T T T T T T > / / / / / / / / / / %.T T T T T T T T T o / / / / / / / / / / %.T T T T T T T T T o / / / / / ",
"/ / / / / %.T T T T T T T T T o / / / / / / / / / / &.T T T T T T T T T o / / / / / / / / / / F T T T T T T T T K > / / / / / / / / / / %.T T T T T T T T T o / / / / / ",
"j h h h h a h h h h   h h h h a h h h h x j h h h h a h h h h   h h h h a h h h h x l h h h h a h h h h   h h h h a h h h h x l h h h h a h h h h   h h h h a h h h h l ",
"T T K T T T K T T T j / / / / / / / / / / T K T T T K T T T K j / / / / / ^ / / / / T T T T T T K T T T j / / / / / / / / / / T T T T T T K T T T j / / / / / / / / / / ",
"T T T T T T T T T T j / / / / / / / / / / T T T T T T T T T T j / / / / / / / / / / T T T T T T T T T T j / / / / / / / / / / T T T T T T T T T T j / / / / / / / / / / ",
"T T T T T T T T T K j / / / / / / / / / / T T T T T T T T T T j / / / / / / / / / ` T T T T T T T T T T j / / / / / / / / / / T T T T T T K T T T j / / / / / / / / / / ",
"T T T T T T T T T T j / / / / / / / / / / T T T T T T T T T T j ( ( ( ( / / / / / / T T T T T T T T T T j / / / ( ( ( ( / / / T K T T T T T T T T j / / / / / / / / / / ",
"3 2 2 2 8 1 2 2 2 2 = 7 7 7 7 5 7 7 7 7 0 3 2 2 2 2 1 2 2 2 2 = 7 7 7 7 6 7 7 7 7 0 3 2 2 2 2 1 2 2 2 2 = 7 7 7 7 5 7 7 7 7 7 3 2 2 2 2 1 2 2 2 2 = 7 7 7 7 5 7 7 7 7 0 ",
"| | `  .{ F ~ ~ ~ ~ ~ ~ ~ ~ ~ < | | ]  .| | | |  .{ F ~ ~ ~ ~ ~ ~ ~ ~ ~ O | ]  .| | | | {  .| F ~ ~ ~ ~ ~ ~ ~ ~ ~ q | | | | | | | |  .{ F ~ ~ ~ ~ ~ ~ ~ ~ ~ < | {  .| | ",
"/ / / ( / F T T T T T T T T T o / / / / / / / / / / F T T T T T T T T T < / / / / / / / / / / %.T T K T T T K T T o ] / / / / / / / / / F T T T K T T T T T o / / / / / ",
"/ / / / / %.T T T K T T T T T o / / / / / / / / / / &.T T T T T T T T T < / / / / ^ / / / / / %.T T T T T K T T T o / / / / / / / / / / F T T T T T T T T T > / / / / / ",
"/ / / / / %.T T T T T T T T T o / / / / / / / / / / F T T T T T T T T T > / / / / / / / / / / %.T T T T T T T T T o / / / / / / / / / / &.T T T T T T T T K o / / / / / ",
"/ { / / / %.T T T T T T T T T < / / / / ( ( / / / / >.K T K T T T T T T < / / / / / / / / / / %.T T T T T T T T T < / / / / / / / / / / @.T T T T T T T T T < / / / / / ",
"V N N M N d N N M N $ V V V V f V V V V Z V N M M M M M N M N $ V V V V f V V V V Z V M N N N d M M M M $ V V V V V V V V V Z V M M M M M M M M M $ V V V V M V V V V C ",
"T T T T T T T T T T j / / / / / / / / / ( T T T T T T T T T T j / / / / / / / / / / T T T T T K T T T T j / / / / / / / / / / T T T K T T T T T T j / / / / / / / / / / ",
"T T T T T T T T T T j / / / / / / / / / / T T T T T T T T T T j / / ( / / / / / / / T T T T T T T T T T j / / / / / / / / / / T T T T T T K T T T j / / / / / / / / / / ",
"T T T T T T T T K T j / / / / / / / / / / T T T T T T T T T T j / / / / / / / / / / K T T T T T T T T T j / / / / / / / / / / T T T T T T T T T K j / / / / / / / / / / ",
"T T T T T T T T T T j / / / / / / / / / / T T T T T T T T T T j / / / / / / / / / / T T T T T T K T T T j / / / / / / / / / / T T T T T T T T T T j / / / / / / / / / / ",
"y t t t t > t t t t $ u u u u , u u u u u y t t t t < t t t t $ u u u u , u u u u u y t t t t > t t t t $ u u u u , u u u u u y t t t t < t t t t $ u u u u , u u u u u ",
"/ / / / / F T T T T T T T T K > / / / / / / / / / / -.T T T T T K T K T < / / / { / / / / / / %.T T T T T T T T T o / / / / / / ^ / / / &.T T T T T T T T T > / / / / / ",
"/ / / / / &.T T T T T T K T K o / / / / / / / / / / &.T T T T T T T T T o / / / / / / / / / / %.T T T T T T T T T o / / / / / / / / / / &.T T T T T T T T T o / / / / / ",
"/ / / / / &.K T T T T T T T T o / / / / / / / / / / &.T T T T T T T T T o / / / ] / / / / / / %.T T T T T T T T T o / / / / / / / / / / &.T T T T T T T T T o / / / / / ",
"/ / / / / F T T T T T T T T T o / / / / / / / / / / F T T T T T T T T T < / / / ( / / [ / / / F T T T T T T T T T < / / / / / / / / / / F T T K T T T T T T o / / / / / ",
"/ / / / / ,.T K T T T K T T T q / / / / / / / / / / -.K T T T K T T T T q / / / ( ( ( ( ` ( / ,.T T T K T T T T T < / / / / / / / ^ / / ,.T T K T T T K T T < / / / / / ",
"O...................; X.o.X.X.X.X.X.X.X.+.O...................; X.o.X.X.X.X.X.X.o.+.....................; X.X.X.X.X.X.X.X.+.+.O...................; o.X.X.X.X.X.X.X.X.+.",
"T T K T K T K K K K j / / / / / / / / / / T T T T T K K T K K j / / / / / / / / / ( T Q T K R T K T K K j / / / / / / / / / / T T T K T K K T T T j / / / / / / / / / / ",
"T T T T T T T T T T j / / ( ( ( / / / / / T T T T T T T T T T j / / / / / / / / / / T T T T T T T T T T j ( ( ( / / / / / / / T T T T T T T T T T j / / / / / / / / / / ",
"T T T K T T T T T T j / / ] / ( / / / / / T T T K T T T T T T j / / / / / / / / / / T T T T T T T T T T j ( ( ( / / / / / / / T T T T T T T T T T j / / / / / / / / / / ",
"T T K T T T T T T K j / ( ( / [ / / / / / T T T T T T T T T T j / / / / / / / / / / T T T T T T T T T T j / _ ( / / / / / / / T K T T T T T T K T j / / / / / / / / / / ",
"k k k k k * k k k k ; k k k l O k k k k z l k k k k * k k k k ; k k k k O k k k k z l k k k k * k k k k ; k k k k X k k k k z l k k k k * k k k k a k k k k O k k k k k ",
"/ / / / / F T T T T T T T T T < / / / / / / / / / / &.T T T T T T T T T o / / / / / / / / / ` %.T T T T T T T T T o / / / / / / / / / / %.T T T K Y T T T T o / / / / / ",
"/ / / / / &.T T T T T T T T T o / / / / / / / / / / F T T T T T T T T T o ^ / / / / / / / ( ( @.T T T T T T T T T < / / / / / / / / / / %.T T T T T T T T T o / / / / / ",
"/ / / / / F T T T T T T T T T > / / / / / / / / / / F T T T T T T T T T o / / / / / / / / / / %.T T T T T T T T T o / / / / / / / / / / %.T T T T T T T T T o / / / / / ",
"/ / / / / $.T T T T T T T T K o / / / / / / / / / / F T T T T T T T T T o / / / / / / / / / / %.T T T T T T T T T o / / / / / / / / / / @.T T T T T T T T T o / / / / / ",
"J J J J J B 6 6 6 6 4 6 6 6 6 + J J J J ~ J J G J J B 6 6 6 6 4 6 6 6 6 + J J J J J ~ J J J J B 6 6 6 6 4 6 6 6 6 + J J J J ~ J J J J J B 6 6 6 6 4 6 6 6 6 + J J J J J ",
"} } } } } } } } } } j  . . . . . . . . . .} } } } } } } } } } j  . . . . . . . . . .} } } } } } } } } } j  . . . . . . . . . .} } } } } } } } } } j  . . . . . . . . . .",
"T T T T T T T T T T j / / / / / / / / / / T T T T T T T T T T j / / / / / / / / / / K K T T T T T T T T j / / / / / / / ^ ( ( T T T T T T T T T T j / / / / / / / / / / ",
"T T T T T T T T T T j / / / / / / / / / / T T T T T T T T T T j / / / / / / / / / / T T T T T T T T T T j / / / / / / / _ ( ( T T T T T T T T T T j / / / / / / / / / / ",
"T T T T T T T T T T j / / / / / / / / / / K T T T T T T T T T j / / / / / / / / / / T T T T T T T T T T j / / / / / / / / / / T T T T T K T T T T j / / / / / / / / / / ",
"T T K T T T T T T K j / / / / / / / / / / T T T T T T T T T T j / / / / / / / ' / / T T T T T T T T T K j / / / / / / / / / / T T T T T T T T T T j / / / / / / / / / / "
};
