/* XPM */
static char *_38c2bd7aac24fcafd5078c88c05ea3fE5mlJ5nt8hgEmZbY[] = {
/* columns rows colors chars-per-pixel */
"64 64 159 2 ",
"   c None",
".  c #010000",
"X  c #080000",
"o  c #2C0200",
"O  c #410700",
"+  c #530700",
"@  c #5D0700",
"#  c #520801",
"$  c #5E0D01",
"%  c #5F1001",
"&  c #670E04",
"*  c #770F01",
"=  c #7B0F01",
"-  c #661205",
";  c #771100",
":  c #791100",
">  c #7D1D0A",
",  c #7F5A53",
"<  c #747E7A",
"1  c #811302",
"2  c #8B1502",
"3  c #861906",
"4  c #96250C",
"5  c #99240F",
"6  c #9F280E",
"7  c #942511",
"8  c #992713",
"9  c #9E2912",
"0  c #AE2303",
"q  c #A3270F",
"w  c #A3290E",
"e  c #AE290C",
"r  c #B02303",
"t  c #BC2B0A",
"y  c #A02510",
"u  c #A22911",
"i  c #BA3619",
"p  c #C32907",
"a  c #C62B09",
"s  c #D72C05",
"d  c #D92C05",
"f  c #D32E09",
"g  c #D92D09",
"h  c #DC300B",
"j  c #CA351A",
"k  c #DE3B16",
"l  c #D63E1E",
"z  c #DD3B19",
"x  c #E43509",
"c  c #E63D0E",
"v  c #EC390B",
"b  c #E23311",
"n  c #E13A16",
"m  c #E93C16",
"M  c #E03B19",
"N  c #EA3B19",
"B  c #F73F1C",
"V  c #F83F1B",
"C  c #A8473A",
"Z  c #D8401C",
"A  c #E9411E",
"S  c #F4411C",
"D  c #F8401D",
"F  c #EF641F",
"G  c #EA4529",
"H  c #E04829",
"J  c #F24121",
"K  c #EF6420",
"L  c #F36820",
"P  c #835D54",
"I  c #D44A56",
"U  c #DA6E4F",
"Y  c #CD765F",
"T  c #CC7561",
"R  c #C77569",
"E  c #C47F6F",
"W  c #D67D69",
"Q  c #C47E71",
"!  c #C97D73",
"~  c #BD867B",
"^  c #C58073",
"/  c #C98376",
"(  c #CA8778",
")  c #D69185",
"_  c #DF978A",
"`  c #DE9A8D",
"'  c #D39E96",
"]  c #F69F9B",
"[  c #E5A093",
"{  c #E8A396",
"}  c #EEAB9D",
"|  c #FDA895",
" . c #F4A09A",
".. c #F0AA9D",
"X. c #F3AFA1",
"o. c #E3B6AF",
"O. c #EFB8AD",
"+. c #F7B5A5",
"@. c #F5B6A5",
"#. c #F6B4A6",
"$. c #F7B4A6",
"%. c #F6B5A6",
"&. c #F7B5A6",
"*. c #F6B4A7",
"=. c #F7B4A7",
"-. c #F6B5A7",
";. c #F7B5A7",
":. c #F5B7A7",
">. c #F4B6A7",
",. c #F6B6A7",
"<. c #F7B5A7",
"1. c #F9B3A6",
"2. c #F9B5A5",
"3. c #F9B4A6",
"4. c #F8B4A7",
"5. c #F9B4A7",
"6. c #F9B5A7",
"7. c #F8B5A6",
"8. c #FAB4A6",
"9. c #F9B4A7",
"0. c #F7B3AA",
"q. c #F6B5A8",
"w. c #F7B5A8",
"e. c #F7B4A9",
"r. c #F6B5A9",
"t. c #F7B5A9",
"y. c #F7B4A8",
"u. c #F6B5AB",
"i. c #F6B7A8",
"p. c #F7B5A9",
"a. c #F8B3A8",
"s. c #FBB3A8",
"d. c #F8B3AA",
"f. c #F8B4A8",
"g. c #F9B4A8",
"h. c #F9B5A8",
"j. c #F8B4A9",
"k. c #F9B4A9",
"l. c #F9B5A9",
"z. c #F8B5A8",
"x. c #FBB5A8",
"c. c #F8B7A8",
"v. c #F8B6A8",
"b. c #FBB7A9",
"n. c #F8B5AA",
"m. c #FAB5AA",
"M. c #FCB7A9",
"N. c #F9B3AD",
"B. c #F8B4A9",
"V. c #CBC3BF",
"C. c #FFDED3",
"Z. c #DAEDE7",
"A. c #F6EFE6",
"S. c #FBEDE4",
"D. c #F8EEE4",
"F. c #F8EEE5",
"G. c #FDECE4",
"H. c #F8EEE4",
"J. c #F5EEEA",
/* pixels */
"        ;.t.t.Q ;.t.y.a.Q t.y.t.E                                                             Q 3.;.t.) Q t.t.t.Q a.t.t.        ",
"      N.;.;.;.a.Q } ;.;.3.^ ;.;.;.^ c.                                                    c.Q ;.;.;.^ ` ;.;.;.Q ;.;.;.;.;.,     ",
"    t.;.;.;.;.;.Q } ;.*.;.E t.;.;.Q 1.;.c.                                              c.c.Q ;.;.;.^ _ 3.t.1.Q ;.;.;.;.;.t.'   ",
"    ;.;.;.;.;.>.Q } ;.;.t.Q ;.*.;.Q ;.;.3.                                              a.a.Q ;.;.;.Q _ *.*.c.Q ;.;.;.*.;.t.'   ",
"    3.Q Q t.;.;.E } ;.;.c.Q t.;.;.Q ;.;.t.                                              y.*.Q ;.;.>.Q _ *.;.;.Q ;.;.;.Q Q [ '   ",
"    3.Q ;.;.;.;.E } ;.;.Q Q Q Q Q Q Q X.t.                                              a.Q Q Q Q Q Q E E ;.*.Q ;.;.;.;.^ [ '   ",
"    3.Q ;.;.;.;.Q } ;.;.! a.Q Q 3.3.t.! Q                                               Q c.*.3.Q Q *.) Q *.;.Q *.;.;.;.^ [ '   ",
"    3.E ;.;.;.Q 3.;.X.Q Q c.Q Q ;.;.t.y.c.O.                                          t.*.;.;.*.Q Q *.) E Q ;.c.Q ;.;.;.^ [ '   ",
"    ;.;.E E E ^ Q Q Q Q Q *.X.*.;.;.;.;.*.O.                                          ;.;.;.;.;.*.*.;.) Q Q Q E Q Q Q Q *.*.'   ",
"    ;.;.1.;.;.*.1.( / 1.Q *.*.y.;.Q ;.;.*.O.                      r                   ;.;.;.Q >.;.*.;.) Q c.Q ;.;.;.;.;.;.*.'   ",
"    ;.*.*.*.;.>.c.( / c.c.Q Q Q Q c.*.;.;.u.            e 0 $     r r     r r         ;.;.;.t.Q Q Q Q ` t.c.Q *.;.;.;.;.;.;.'   ",
"    *.;.;.3.;.;.;.;.X.Q t.3.a.1.Q Q *.;.y.                0 r r r r 0   r r             t.;.Q Q 1.1.1.1.c.Q *.*.;.;.;.;.;.;.'   ",
"    ;.*.;.;.*.;.;.;.X.Q t.;.*.*.;.;.t.              r r r r r r r r r r r r r r           t.;.;.;.*.3.;.;.Q *.*.;.;.;.;.;.;.'   ",
"    ;.3.;.;.*.;.;.y.X.Q Q ;.;.;.;.;.                  r 0 r r r r r r r r r r               ;.t.;.*.;.) Q Q ;.;.;.;.;.;.;.;.'   ",
"      ;.;.*.*.*.Q Q / c.;.;.;.y.                  r 0 r r r r r r r r r r r r 0 0 >               t.;.;.3.;.;.;.;.;.;.;.;.P     ",
"      ;.;.;.;.*.*.t.t.;.;.;.;.y.                    r r r r U y.a.s.a.3.r r r r                   a.;.*.;.;.;.;.;.;.;.;.;.,     ",
"      ;.;.;.;.;.;.;.;.;.;.;.;.;.;.k k                 0 r T C 7 ;.3.*.2 E r r               n v t.;.;.;.;.;.;.;.;.;.*.;.;.,     ",
"      ;.;.;.;.;.;.;.;.;.;.;.;.;.;.*.k k N G ; ; ;   0 r r Y Q R 2 Q 2 / Q 0 r 0     s n n n M a.t.;.;.;.;.;.;.;.;.;.;.;.;.,     ",
"      ;.;.;.;.;.;.;.;.;.;.;.;.;.;.;.z n N S S ; ; r Q ^ 0 T o.S.G.Q S.S.^ r ! ^ w a S n n n n *.;.;.;.;.;.;.;.;.;.;.;.;.;.,     ",
"      ;.;.;.*.;.;.;.;.;.;.;.;.;.;.;.z n N B S ; ; ; ;.^ 0 | C.V.. ;.. S.8.r Q *.H V S n n n n *.;.;.;.;.;.;.;.;.;.;.;.;.;.,     ",
"      ;.;.;.;.;.;.;.;.;.;.;.;.;.3.c.f d s n n ; ; ; ;.3.0 | t. .I I I c.;.0 3.;.Z v v d d d d *.;.;.;.;.;.;.;.;.;.;.;.;.;.P     ",
"      ;.;.;.;.;.;.;.;.;.;.;.;.;.;.c.f d s n M ; ; ; ; ; 3.t.;.] I I I y.;.;.* c v v v d d d d E 1.;.;.;.;.;.;.;.;.;.;.;.;.,     ",
"      ;.;.;.*.;.;.;.;.;.;.;.;.;.;.^ f d s n n n ; ; ; ^ t.t.t.c.*.1.a.1.;.1.Q m v v v d d d d Q 3.;.;.;.;.;.;.;.;.;.;.;.        ",
"        ;.;.;.;.;.;.;.;.;.;.;.;.@.^ s s s n n n ; ; ; t.;.X < Z.Z.Z.Z.Z.. ;.3.v v v v d d d s Q 3.t.;.;.;.;.*.;.;.;.;.;.        ",
"          ;.;.;.;.;.;.;.;.;.;.1.E n n n N S D D : ; ; ;.. A.S.F.S.A.A.A.S.. c.S B S S k n n k B Q 1.;.;.;.;.;.;.;.;.;.          ",
"            t.;.;.;.;.;.;.;.;.;.E n n n N B B B : ; ; ;.. A.S.A.D.D.S.S.A.. t.J B B J w n n n B Q ;.;.t.;.;.;.;.;.              ",
"                >.;.t.;.;.;.c.^ n n n n m S J ; ; ; ; ; ;.1.;.t.c.c.t.c.t.c.s S B B S w M n n B B Q Q Q Q t.t.                  ",
"                      ;.1.Q Q J n n n n m B J ; ; ; ; ; f W ^ ^ Q Q Q Q Q g d B S B S k q n k B B B B b i                       ",
"                            s s s s s s g n M ; ; ; ; ; s g s s s s d d d g v v v v v s w d d v v v                             ",
"                                  d d d g l ; : : ; ; ; s m x s d d d d d s v v v v v d d w d v d                               ",
"                                  ; ; a g l : ; ; ; ; ; s v v v v v d d d d v v v v v d d d w v d                               ",
"                                  ; ; ; : : F ; ; ; ; L s v v v v v d d d d v v v v v d d d d v d                               ",
"                                  ; ; ; ; 1 F F K K F F w A S V V V n k n n B V B S V k n n n S                                 ",
"                                  ; ; ; : ; ; F ; ; F ; w A B B V V n n n n V B B B S n n n k B                                 ",
"                                  ; ; ; ; ; : K F F F ; w w j B B V k n n k V B V V V n n n n B                                 ",
"                                  ; ; ; ; ; : K F F K ; : u u e B V n n n k B B B V S n n n k V                                 ",
"                                    ; ; ; ; ; ; ; ; ; ; : u u u w w g s g d x v v v v d s s d v                                 ",
"                                    ; ; ; ; : ; ; ; ; ; ; 9 u w q q w w d d v v v v v d d d d v                                 ",
"                                    ; ; : ; ; ; ; ; ; ; : ; 5 w w w w u q q v v v v v d d d s v                                 ",
"                                    ; ; ; ; ; ; ; ; ; ; ; : 5 w w w w w w q u u w t v d d d s v                                 ",
"                                    ; ; ; ; ; ; : ; ; ; ; ; ; 1 w w w w w w w w w w w w w n n D                                 ",
"                                    ; ; ; ; ; ; ; ; ; ; ; ; ; ; : : ; ; ; w w w w w w w w w w :                                 ",
"                                    ; ; ; ; ; ; ; ; ; ; ; ; ; ; ; ; ; ; ; : : : : : 1 ; ; ; : ;                                 ",
"                                    ; ; ; ; ; ; ; ; ; : ; ; : ; ; ; ; ; ; ; ; ; : ; ; ; ; ; ; :                                 ",
"                                    ; ; ; ; ; ; ; ; ; ; ; ; ; ; ; ; ; : ; ; ; ; : ; ; ; ; : ; ;                                 ",
"                                    ; ; ; ; ; ; ; ; * ; ; ; ; ; ; ; ; ; ; ; ; ; ; ; ; ; ; ; ; ;                                 ",
"                                    ; ; ; ; ; ; ; : ; ; ; : : ; ; ; ; ; ; ; ; ; ; ; ; ; ; ; ; ;                                 ",
"                                    ; ; ; ; ; ; ; ; ; ; ; ; ; ; : ; ; ; ; ; : ; ; : ; ; ; ; ; ;                                 ",
"                                    ; ; ; ; ; ; ; ; ; ; ; ; ; ; ; ; ; ; : ; ; ; ; ; ; ; ; ; ; ;                                 ",
"                                  ; ; ; ; ; : ; ; ; ; ; ; : ; ; ; ; ; : ; ; ; * : ; ; ; ; : ; ; :                               ",
"                                  ; : * ; ; ; ; ; ; ; ; ; ; ; ; ; ; ; ; ; ; ; ; ; ; ; ; ; ; ; ; :                               ",
"                                  ; ; u 8 : u ; u : ; ; ; ; ; ; ; : ; ; ; ; : ; ; 3 9 * w ; u ; ;                               ",
"                                ; ; u : 3 u ; u : u ; ; ; ; ; ; ; ; ; ; ; ; ; ; 9 4 * u ; w ; u ; ;                             ",
"                                ; ; ; 9 8 * u ; u ; ; ; ; ; ; -       ; ; ; ; ; ; 3 9 ; u ; 9 ; ; ;                             ",
"                                ; ; u 1 3 u ; u ; w * ; ; ; ; -       ; ; : ; ; 9 4 : u ; 9 * 9 ; ;                             ",
"                                ; ; ; y 9 * u ; u ; ; ; ; ; O           ; ; ; : ; 3 u ; u ; u ; ; ;                             ",
"                                ; ; ; ; ; ; ; ; : ; ; ; ; ; O           ; ; ; ; ; ; ; ; ; ; ; ; ; ;                             ",
"                                ; ; ; ; & + ; ; ; ; ; ; ; ; O           : ; ; ; ; ; ; ; ; # ; ; :                               ",
"                                  # ; # @ ; # * ; ; # ; ; ; O           ; ; ; # ; ; ; ; # * # ; #                               ",
"                                  * # ; - + * # ; # : # ; + o           # ; # ; + $ ; # ; # ; # ;                               ",
"                                a.t.t.;.c.t.t.t.t.a.3.Q                     Q c.c.t.a.t.a.c.3.a.t.3.                            ",
"                              c.t.;.;.;.y.;.;.3.Q t.t.Q                     Q t.;.{ Q t.c.;.t.;.;.t.t.~                         ",
"                              t.Q ;.;./ / 3.t.Q 3.;.;.Q                     Q ;.;.;.a.^ 1.y.Q 1.*.Q c.~                         ",
"                              ;.Q *.;./ / ;.3.Q ;.;.;.                        t.;.t.3.Q t.3.Q ;.;.Q *.~                         "
};
