/* XPM */
static char *_56ed7e6fbc046f1a8702dac7f67e70eWAjCiuTrASRk80J8[] = {
/* columns rows colors chars-per-pixel */
"64 64 51 1 ",
"  c black",
". c #020203",
"X c #050404",
"o c gray3",
"O c #101010",
"+ c #101110",
"@ c #101111",
"# c #1E1E1E",
"$ c #1E1F1E",
"% c #1F1F1E",
"& c #1F1E1F",
"* c #1E1F1F",
"= c gray13",
"- c #222322",
"; c #222223",
": c #252424",
"> c #242425",
", c #242525",
"< c #282828",
"1 c #282929",
"2 c #2C2C2C",
"3 c #2C2D2D",
"4 c #313131",
"5 c #343434",
"6 c #343534",
"7 c #6E6E6F",
"8 c #6F6E6F",
"9 c #6E6F6F",
"0 c #6F6F6F",
"q c #767677",
"w c #767777",
"e c #777777",
"r c #797878",
"t c #787978",
"y c #797879",
"u c #7A7A7B",
"i c #7F7E7F",
"p c gray50",
"a c #B21600",
"s c #B31600",
"d c #B21700",
"f c #B31700",
"g c #B31701",
"h c #CC1C00",
"j c #CD1C00",
"k c #CC1C01",
"l c #CC1D01",
"z c #808080",
"x c #838383",
"c c #848585",
"v c gray52",
/* pixels */
"2y9900000099977077700000009977i.4y999988000e997777070880000e99i ",
"ygggggggggggggddggddddggggggggg<zkkkkkkkkkkkhhkkkkkkkkkkkkkkkkk1",
"9gggggggggggffddggggggggggggggg#ekkkkkkkkkkkhhhkkkkkkkkkkkkkkkk&",
"9gggggggggggfffdggggggggggggggg#ekkkkkkkkkkkhhkkkkkkkkkkkkkkkkk&",
"9sffffggffffffffggggggggggggggg#ykkkkkkkkkkkkkkkkkkkkkkkkkkkkkk#",
"9sffffggffsfffffggggggggggggggg*ekkkkkkkkkkkkkkkkkkkkkkkkkkkkkk&",
"9ssffffgffffffsfggggggggggggggg*ekkkkkkkkkkkkkkkkkkkkkkkkkkkkkk&",
"8sffffggffffffffggggggggggggggg*ekkkkkkkkkkkkkkkkkkkkkkkkkkkkkk&",
"7gggggggffffffffggggggggggggggf#ekkkhhhhhhhhkkkkkkkkkkkkkkkkkkk#",
"7gggggggfffffffsgggggggggggggff&ekkkhhhhhhhhkkkkkkkkkkkkkkkkkkk%",
"0dggggggfffffsffggggggggggggggf#ekkkhhhhhhhhkkkkkkkkkkkkkkkkkkk%",
"0dggggggffffffffggggggggggggggf&ekkkhhhhhhhhkkkkkkkkkkkkkkkkkkk%",
"0gggggggggggfffffgggggggggggfff&ekhhhhhhhhkkkkkkkkkkkkkkkkkkkkk%",
"0gggggggggggfffffsggggggggggfsf&ekhhhhhhhhkkkkkkkkkkkkkkkkkkkkk%",
"igggssgsggggfffsssggggggggggssg2vkkhhhhhhhhkkkkkkkkkkkkkkkkkkkk2",
" ;#*&***&&&&&&;@@&#####&*****#1  :;##&&&&&####-+@-%%&%&&&&&&&;1 ",
"yyeeeeeeteteeexo6iywwywweqqeeeewyeeweewweewwwwxo6ieeteeeeeeeeetw",
"kkkkkkkkkkkkkkk1zsgfsffsgggggggggggsgssgsssgggg<xkkkhhhhhhhhhhkk",
"kkkkkkkkkkkkkkk&tsffsgggggggggggggggggggggggggg#ekkkhhhhhhhhkkkk",
"kkkkkkkkkkkkkkk#esffggggggggggggggggggggggggggg#ekkkhhhhhhhhkkkk",
"kkkkkkkkkkkkkkk*yggggggsggggggggggggggggggggggg#elhhhhhhkkkkkkkk",
"kkkkkkkkkkkkkkk#wgggggggggggggggggggggggggggggg*elhhhhhhkkkkkkkk",
"kkkkkkkkkkkkkkl#wsggggggggggggggggggggggggggggs*ehhhhhhhkkkkkkkk",
"kkkkkkkkkkkkkkl%ysgggggggggggggggggggggggggggss*elhhhhhhkkkkkkkk",
"kkkkkkkkkkkkhhh#wgggggggggggggggggggggggfffffff*ehhhhhhhkkkkkkkk",
"kkkkkkkkkkkkhhh#wgggggggggggggggggggggggfffffff*ehhhhhhhkkkkkkkk",
"kkkkkkkkkkkkhhl%wgggggggggggggggggggggggfffdffd*whhhhhhhkkkkkkkk",
"kkkkkkkkkkkkhhl%wgggggggggggggggggggggggfffffff*ehhhhhhhkkkkkkkk",
"kkkkkkkkkkkkkkk%esggggggggggggggggggggggffffffs*ehhhhhhhhhhhkkkk",
"kkkkkkkkkkkkkkk%esgsggggggssggggggggggggfffffff&ehhhhhhhhhhlkkkk",
"kkkkkkkkkkkkkkk2xggsgggggggsgsssgaggggggssdfffs2vhhhhhhhhhllllkk",
":;&&&&&&&%&&%#1  :*&&&**##*#**;@O;#&*&&&*&*&&&1 .>#&&****#%##%:@",
"1ieeeeeeeeeeeettyewwwyewwywwwyxo5iwwwyeeeteeeeyyyyeeyeeeeewwwevo",
"ygggggggggggggggsssggfsggssggss1ihhhhhkkkkkkkkkkkkkkkkllllhhkkl1",
"7fggggggggggggggfgggggggggggggf*whhhkkkkkkkkkkkkkkkkkkkkhhhhkkh#",
"0fggggggggggggggggggggggggggggd#whhhkkkkkkkkkkkkkkkkkkkkhhhhkkk#",
"0dggggggggggggggggggggggggggggg#tkkkkkkkkkkkkkkkkkkkkkkkkkkkkkk#",
"0dggggggggggggggggggggggggggggg*ekkkkkkkkkkkkkkkkkkkkkkkkkkkkkk#",
"0gggggggggggggggggggggggggggggd#ekkkkkkkkkkkkkkkkkkkkkkkkkkkkkk#",
"7gggggggggggggggggggggggggggfff#tkkkkkkkkkkkkkkkkkkkkkkkkkkkkkk&",
"7sggggggggggggggggggggggffffffg#ehhhkkkkkkkkkkkkkkkkkkkkkkkkkkk%",
"0sggggggggggggggggggggggffffffs*ehhhkkkkkkkkkkkkkkkkkkkkkkkkkkk%",
"7gggggggggggggggggggggggfffffff&ehhhkkkkkkkkkkkkkkkkkkkkkkkkkkk%",
"0gggggggggggggggggggggggfffffff&ehhhkkkkkkkkkkkkkkkkkkkkkkkkkkk#",
"0fffggggggggggggggggggggffffggg#ehkkkkkkkkkkkkkkkkkkkkkkkkkkkkk#",
"0fffggggggggggggggggggggffffggg#ehkkkkkkkkkkkkkkkkkkkkkkkkkkkkk#",
"pdsfssggsgggggsfggssssggdffdggg2ckkkkkkkkkkkkkkkkkkkkkkkkkkkkkk2",
" :*%&#&#&*&&&&;@@**&*&**&&&###1  ;;###&&%#%#&%-++;#;*#%#%%&&&&1 ",
"yyeewyweeeeeeezo5ieeeeeeeqeqqeqwwteweeeqqeeeeevo6ieeteeteetewwtt",
"kkllhhkkkkkkkkk1igggggggggaggggggddaagggggggggg<zkkkkklhhhhhhhhh",
"hhllhhhhkkkkkkk%egggggggggggggggggagggggggggggg#tkkkkkkkhhhhhhhh",
"hhhlhhhhkkkkkkk&egggggggggggggggggggggggggggggg#ekkkkkkkhhhhhhhh",
"hhhhhhhhkkkkkkk%egggggggggggggggggggggggggggggg#ekkkkkkkhhhhhhhh",
"hhhhhhhhkkkkkkk#egggggggggggggggggggggggggggggg#tkkkkkkkhhhhhhhh",
"hhhhhhhhkkkkkkk%egggggggggggggggggggggggggggggs#ekkkkkkkhhhhhhhh",
"hhhhhhhhkkkkkkk#eggggggggggggggggggggggggggggff&ekkkkkkkhhhhhhhh",
"kkkkkkkkkkkkkkk%egggggggggggggggggggggggffffggs*yhhhhhhhhhhhhhhh",
"kkkkkkkkkkkkkkk#tdggggggggggggggggggggggffffggs*ehhhhhhhlhhhhhhh",
"kkkkkkkkkkkkkkk%edggggggggggggggggggggggffffggg*elhhhhhhhhhhhhlh",
"kkkkkkkkkkkkkkk#egggggggggggggggggggggggffffggg&ehhhhhhhllhhhhhh",
"kkkkkkkkkkkkkkk&egggggggggggggggggggggggffffggg#ehhhhhhhhhhhhhhh",
"kkkkkkkkkkkkkkk&egggggggggggggggggggggggffffggg;ehhhhhhhhhhhhhhh",
"llkkkkkkkkkkkkk2vgggggggggggggggggggggggfffsggg2vlhhhhhhhhhhhllh",
">;%%%&##%%##%%1  >###########;:@o;######&&&**#1  :##&&*****###;@"
};
